<mxfile host="app.diagrams.net" modified="2023-03-25T04:56:02.196Z" agent="Mozilla/5.0 (Windows NT 10.0; Win64; x64) AppleWebKit/537.36 (KHTML, like Gecko) Chrome/111.0.0.0 Safari/537.36" etag="em7B3qrsa05AOTvi1tue" version="21.1.1" type="github">
  <diagram name="Page-1" id="3e8102d1-ef87-2e61-34e1-82d9a586fe2e">
    <mxGraphModel dx="918" dy="489" grid="1" gridSize="10" guides="1" tooltips="1" connect="1" arrows="1" fold="1" page="1" pageScale="1" pageWidth="1100" pageHeight="850" background="none" math="0" shadow="0">
      <root>
        <mxCell id="0" />
        <mxCell id="1" parent="0" />
        <mxCell id="70666756c84bb93c-1" value="" style="ellipse;whiteSpace=wrap;html=1;rounded=0;shadow=0;comic=0;strokeWidth=1;fontFamily=Verdana;fontSize=14;strokeColor=none;fillColor=#0069D1;" parent="1" vertex="1">
          <mxGeometry x="280" y="110" width="500" height="500" as="geometry" />
        </mxCell>
        <mxCell id="70666756c84bb93c-2" value="Test Data Management Life Cycle" style="ellipse;whiteSpace=wrap;html=1;rounded=0;shadow=0;comic=0;strokeWidth=1;fontFamily=Verdana;fontSize=22;strokeColor=none;fillColor=#ffffff;fontColor=#0069D1;fontStyle=1" parent="1" vertex="1">
          <mxGeometry x="400" y="230" width="260" height="260" as="geometry" />
        </mxCell>
        <mxCell id="rVTXVVBDv65XMjhWx813-3" value="" style="shape=image;html=1;verticalAlign=top;verticalLabelPosition=bottom;labelBackgroundColor=#ffffff;imageAspect=0;aspect=fixed;image=https://cdn0.iconfinder.com/data/icons/business-startup-10/50/69-128.png;strokeWidth=0;align=center;" vertex="1" parent="1">
          <mxGeometry x="495" y="130" width="70" height="70" as="geometry" />
        </mxCell>
      </root>
    </mxGraphModel>
  </diagram>
</mxfile>
